# xmcd
#
# Track frame offsets: 
#        150
#        21756
#        44949
#        77017
#        102098
#        116843
#        144175
#        169382
#        204217
#
# Disc length: 3289 seconds
#
# Revision: 1
# Processed by: cddbd v1.5.1PL2 Copyright (c) Steve Scherf et al.
# Submitted via: ExactAudioCopy v0.95b3
#
DISCID=760cd709
DTITLE=Phil Woods - Moonlight in Vermont [CD 4)
DYEAR=2005
DGENRE=Jazz
TTITLE0=You Took Advantage Of Me
TTITLE1=Opal
TTITLE2=Friday Night At The Cadillac Club
TTITLE3=Quilombo
TTITLE4=Barbados
TTITLE5=Nana
TTITLE6=Colo De Rio
TTITLE7=Palisades In Blue
TTITLE8=Wamba
EXTD=YEAR: 2005
EXTT0=
EXTT1=
EXTT2=
EXTT3=
EXTT4=
EXTT5=
EXTT6=
EXTT7=
EXTT8=
PLAYORDER=
